<svg width="314" height="232" viewBox="0 0 314 232" fill="none" xmlns="http://www.w3.org/2000/svg"><path d="M313.865 90.953l-.108 49.944c-.01 4.314-2.845 8.617-8.504 11.904L178.129 226.68c-11.395 6.62-29.929 6.625-41.397 0L8.777 152.806c-5.773-3.333-8.654-7.703-8.644-12.073l.108-49.919c0 4.355 136.594 85.922 136.594 85.922 11.472 6.619 30.006 6.619 41.402-.005 0 0 135.618-81.47 135.628-85.778z" fill="#292929"></path><path d="M125.531 182.218L19.577 121.042c-2.74-1.581-6.163.395-6.163 3.558v16.526a8.216 8.216 0 004.108 7.116l105.954 61.172c2.739 1.581 6.163-.396 6.163-3.558v-16.522a8.217 8.217 0 00-4.108-7.116zM305.224 78.879c11.47 6.621 11.53 17.355.135 23.977l-127.124 73.877c-11.395 6.622-29.929 6.623-41.398.002L8.881 102.859c-11.47-6.622-11.527-17.357-.132-23.98L135.873 5.004c11.395-6.622 29.926-6.622 41.395 0l127.956 73.876z" fill="#494949"></path><path d="M285.994 84.017c6.647 3.857 6.678 10.107.074 13.963l-116.654 68.126c-6.604 3.857-17.341 3.859-23.989.003L28.008 97.984c-6.647-3.857-6.682-10.11-.078-13.966l116.654-68.125c6.604-3.857 17.346-3.857 23.993 0l117.417 68.124z" fill="#292929"></path><path d="M26.478 135.021c2.509 1.448 4.532 4.952 4.523 7.834-.008 2.883-2.044 4.047-4.552 2.599-2.509-1.449-4.535-4.958-4.527-7.84.009-2.883 2.048-4.041 4.556-2.593zM41.102 143.464c2.505 1.446 4.531 4.952 4.523 7.834-.008 2.883-2.048 4.045-4.553 2.598-2.508-1.448-4.534-4.957-4.526-7.84.008-2.882 2.048-4.04 4.556-2.592zM55.725 151.907c2.506 1.446 4.532 4.952 4.524 7.834-.009 2.882-2.048 4.045-4.553 2.598-2.508-1.448-4.535-4.957-4.526-7.84.008-2.882 2.047-4.04 4.555-2.592z" fill="#FFD744" fill-opacity=".38"></path><path d="M184.567 186.464c-1.346.777-2.434 2.661-2.43 4.208l.049 17.152c.004 1.547 1.099 2.171 2.445 1.394 1.346-.777 2.434-2.662 2.429-4.208l-.048-17.153c-.005-1.546-1.1-2.17-2.445-1.393z" fill="#FFD744" fill-opacity=".21"></path><path d="M185.915 204.408l-.049-17.153c-.001-.46-.1-.839-.273-1.123.835-.036 1.416.6 1.419 1.726l.049 17.152c.004 1.547-1.084 3.431-2.43 4.208-.945.545-1.765.4-2.172-.27.312-.014.66-.121 1.026-.332 1.346-.777 2.434-2.662 2.43-4.208zM289.212 125.648c-1.346.778-2.434 2.662-2.429 4.208l.048 17.153c.004 1.546 1.1 2.17 2.445 1.393 1.346-.777 2.434-2.661 2.43-4.208l-.049-17.152c-.004-1.547-1.099-2.171-2.445-1.394z" fill="#FFD744" fill-opacity=".21"></path><path d="M290.56 143.592l-.048-17.152c-.002-.461-.101-.839-.273-1.124.834-.035 1.415.601 1.418 1.726l.049 17.152c.004 1.547-1.083 3.431-2.429 4.208-.945.546-1.766.4-2.173-.27.312-.013.66-.12 1.027-.332 1.346-.777 2.434-2.661 2.429-4.208zM274.263 134.336c-1.346.777-2.434 2.662-2.43 4.208l.049 17.153c.004 1.546 1.099 2.17 2.445 1.393 1.346-.777 2.434-2.661 2.429-4.208l-.048-17.152c-.004-1.547-1.1-2.171-2.445-1.394z" fill="#FFD744" fill-opacity=".21"></path><path d="M275.611 152.28l-.049-17.152c-.001-.461-.1-.839-.273-1.124.835-.036 1.416.601 1.419 1.726l.049 17.152c.004 1.547-1.084 3.431-2.43 4.208-.945.546-1.765.4-2.172-.27.312-.014.66-.121 1.026-.332 1.346-.777 2.434-2.662 2.43-4.208zM259.313 143.024c-1.346.777-2.433 2.662-2.429 4.208l.049 17.153c.004 1.546 1.099 2.17 2.445 1.393 1.346-.777 2.434-2.661 2.429-4.208l-.048-17.152c-.005-1.547-1.1-2.171-2.446-1.394z" fill="#FFD744" fill-opacity=".21"></path><path d="M260.661 160.968l-.048-17.152c-.001-.461-.1-.839-.273-1.124.835-.036 1.415.601 1.419 1.726l.048 17.152c.005 1.547-1.083 3.431-2.429 4.208-.945.546-1.766.4-2.173-.27.313-.014.66-.12 1.027-.332 1.346-.777 2.434-2.662 2.429-4.208zM244.364 151.712c-1.346.777-2.434 2.662-2.429 4.208l.048 17.153c.005 1.546 1.1 2.17 2.445 1.393 1.346-.777 2.434-2.661 2.43-4.208l-.049-17.152c-.004-1.547-1.099-2.171-2.445-1.394z" fill="#FFD744" fill-opacity=".21"></path><path d="M245.712 169.656l-.049-17.152c-.001-.461-.1-.839-.272-1.124.834-.036 1.415.601 1.418 1.726l.049 17.152c.004 1.547-1.084 3.431-2.429 4.208-.945.546-1.766.4-2.173-.27.312-.014.66-.12 1.027-.332 1.346-.777 2.433-2.662 2.429-4.208zM229.415 160.4c-1.346.777-2.434 2.662-2.43 4.208l.049 17.153c.004 1.546 1.099 2.17 2.445 1.393 1.346-.777 2.434-2.661 2.429-4.208l-.048-17.152c-.005-1.547-1.099-2.171-2.445-1.394z" fill="#FFD744" fill-opacity=".21"></path><path d="M230.763 178.344l-.049-17.153c-.001-.46-.1-.839-.273-1.123.835-.036 1.416.6 1.419 1.726l.049 17.152c.004 1.547-1.084 3.431-2.43 4.208-.945.545-1.765.4-2.172-.27.312-.014.66-.121 1.026-.332 1.346-.777 2.434-2.662 2.43-4.208zM214.465 169.088c-1.346.777-2.433 2.661-2.429 4.208l.048 17.152c.005 1.547 1.1 2.171 2.446 1.394 1.346-.777 2.434-2.661 2.429-4.208l-.048-17.152c-.005-1.547-1.1-2.171-2.446-1.394z" fill="#FFD744" fill-opacity=".21"></path><path d="M215.813 187.032l-.048-17.153c-.002-.46-.1-.839-.273-1.123.835-.036 1.415.6 1.419 1.726l.048 17.152c.005 1.547-1.083 3.431-2.429 4.208-.945.545-1.766.4-2.173-.27.313-.014.66-.121 1.027-.332 1.346-.777 2.434-2.662 2.429-4.208zM199.516 177.776c-1.346.777-2.434 2.661-2.43 4.208l.049 17.152c.004 1.547 1.099 2.171 2.445 1.394 1.346-.777 2.434-2.661 2.43-4.208l-.049-17.152c-.004-1.547-1.099-2.171-2.445-1.394z" fill="#FFD744" fill-opacity=".21"></path><path d="M200.864 195.72l-.049-17.153c-.001-.46-.1-.839-.272-1.123.834-.036 1.415.6 1.418 1.726l.049 17.152c.004 1.547-1.084 3.431-2.43 4.208-.944.545-1.765.4-2.172-.27.312-.014.66-.121 1.027-.332 1.345-.777 2.433-2.662 2.429-4.208z" fill="#FFD744" fill-opacity=".21"></path><path d="M116.41 185.959l-33.915-19.582v12.844l33.915 19.581v-12.843z" fill="#FFD744" class="rig_svg__light"></path></svg>